#!OML:ASF H:\BreakDance\Project 1\Capture day 1\Session 1\Male.ASF
:FULLY-SPECIFIED
:DEGREES
460
root 5.81197 14.0734 1.80763 -174.13 -80.94 250.929
lowerback 46.1528 6.3661 -8.20047
upperback 5.27655 1.65374 -6.11383
thorax -15.4379 0.742587 -3.42678
lowerneck -10.4804 0.14715 -0.794795
upperneck -18.3413 0.0488377 2.2864
head -4.27143 -0.334735 0.933081
rclavicle -1.46306e-013 -6.77856e-014
rhumerus 61.5129 -9.24056 -66.807
rradius 17.1329
rwrist 14.2649
rhand -33.1108 -32.3843
rfingers 7.12502
rthumb -6.32122 -62.27
lclavicle -1.46306e-013 -6.77856e-014
lhumerus 72.9805 -0.683822 41.2794
lradius 20.0537
lwrist -12.7786
lhand -46.8894 -51.059
lfingers 7.12502
lthumb -19.6009 -22.0271
rfemur -2.82897 -26.8463 31.757
rtibia 33.5328
rfoot -3.41808 -6.92833
rtoes -3.06704
lfemur -94.9348 6.30398 -12.8977
ltibia 71.859
lfoot -41.9517 4.21699
ltoes -26.975
461
root 5.69715 14.1291 1.82875 -175.044 -80.7679 253.921
lowerback 45.742 5.99567 -7.66721
upperback 5.27911 1.48471 -6.40518
thorax -15.3339 0.653555 -3.91988
lowerneck -10.9379 0.147775 -1.13363
upperneck -18.5981 0.102399 2.50063
head -4.29141 -0.302353 1.06649
rclavicle -1.70955e-014 3.73715e-014
rhumerus 62.4837 -9.39125 -65.2738
rradius 17.1796
rwrist 12.4743
rhand -34.008 -33.8556
rfingers 7.12502
rthumb -7.1873 -63.7135
lclavicle -1.70955e-014 3.73715e-014
lhumerus 73.5492 0.00903414 39.9876
lradius 20.7343
lwrist -11.1941
lhand -48.303 -54.854
lfingers 7.12502
lthumb -20.9595 -25.9664
rfemur -0.616149 -27.4439 31.0243
rtibia 33.382
rfoot -2.79126 -7.35988
rtoes -2.09629
lfemur -95.7608 6.38047 -12.0593
ltibia 70.2098
lfoot -41.4006 4.78119
ltoes -26.3391
462
root 5.57004 14.1977 1.84874 -175.871 -80.6666 256.891
lowerback 45.3407 5.60475 -7.10774
upperback 5.31293 1.31336 -6.62831
thorax -15.1962 0.562621 -4.34965
lowerneck -11.3595 0.162913 -1.34865
upperneck -18.9171 0.152633 2.58493
head -4.34119 -0.276831 1.13582
rclavicle -1.4551e-013 1.66979e-014
rhumerus 63.2224 -9.47912 -63.1408
rradius 17.5258
rwrist 9.70378
rhand -35.5476 -35.4398
rfingers 7.12502
rthumb -8.67325 -65.2416
lclavicle -1.4551e-013 1.66979e-014
lhumerus 74.1017 0.903359 39.4806
lradius 21.3875
lwrist -10.2531
lhand -49.5574 -59.2075
lfingers 7.12502
lthumb -22.1643 -30.4581
rfemur 1.48339 -28.0599 30.2195
rtibia 33.3279
rfoot -2.17409 -7.67775
rtoes -1.18193
lfemur -96.4469 6.40502 -11.2041
ltibia 68.2404
lfoot -40.794 5.387
ltoes -25.8019
463
root 5.43052 14.2786 1.86612 -176.543 -80.6498 259.761
lowerback 44.9516 5.21731 -6.57788
upperback 5.36906 1.1444 -6.76936
thorax -15.0342 0.475396 -4.67541
lowerneck -11.701 0.1923 -1.37357
upperneck -19.3354 0.186759 2.5125
head -4.44165 -0.270168 1.12069
rclavicle 6.40087e-014 3.02153e-014
rhumerus 63.7075 -9.59391 -60.6215
rradius 18.2331
rwrist 6.29881
rhand -37.5652 -37.2306
rfingers 7.12502
rthumb -10.6199 -66.9423
lclavicle 6.40087e-014 3.02153e-014
lhumerus 74.634 1.97385 39.253
lradius 22.1189
lwrist -9.49238
lhand -50.5241 -63.6521
lfingers 7.12502
lthumb -23.0921 -35.0158
rfemur 3.48664 -28.7192 29.3331
rtibia 33.319
rfoot -1.5407 -7.87219
rtoes -0.422814
lfemur -96.9941 6.37829 -10.3611
ltibia 65.9492
lfoot -40.1199 6.00422
ltoes -25.4526
464
root 5.28041 14.3707 1.88015 -177.058 -80.7108 262.531
lowerback 44.5701 4.86149 -6.1297
upperback 5.42588 0.990974 -6.81445
thorax -14.8699 0.400546 -4.86218
lowerneck -11.9517 0.23341 -1.27
upperneck -19.8104 0.216181 2.36801
head -4.57995 -0.274653 1.05965
rclavicle -1.04958e-013 -1.11319e-014
rhumerus 64.0015 -9.84846 -58.1192
rradius 19.283
rwrist 2.8494
rhand -39.7988 -39.2796
rfingers 7.12502
rthumb -12.7738 -68.8688
lclavicle -1.04958e-013 -1.11319e-014
lhumerus 75.1084 3.22026 38.6778
lradius 23.034
lwrist -8.29978
lhand -51.1927 -67.7211
lfingers 7.12502
lthumb -23.7334 -39.1666
rfemur 5.39288 -29.3753 28.3896
rtibia 33.3203
rfoot -0.883232 -8.01043
rtoes 0.244803
lfemur -97.4142 6.30634 -9.51538
ltibia 63.3441
lfoot -39.3405 6.64346
ltoes -25.3579
465
root 5.12191 14.4727 1.89055 -177.452 -80.8269 265.228
lowerback 44.2407 4.55559 -5.79423
upperback 5.43755 0.855668 -6.7639
thorax -14.7698 0.340779 -4.89942
lowerneck -12.1444 0.283782 -1.17216
upperneck -20.2345 0.270233 2.29196
head -4.71123 -0.267726 1.02236
rclavicle 9.54166e-015 -1.47101e-014
rhumerus 64.1967 -10.2894 -55.9653
rradius 20.5786
rwrist -0.142327
rhand -41.9598 -41.6358
rfingers 7.12502
rthumb -14.8564 -71.0831
lclavicle 9.54166e-015 -1.47101e-014
lhumerus 75.4953 4.58083 38.0105
lradius 24.0681
lwrist -6.93886
lhand -51.6303 -71.2576
lfingers 7.12502
lthumb -24.1531 -42.7582
rfemur 7.20969 -29.9498 27.428
rtibia 33.2937
rfoot -0.235048 -8.14199
rtoes 0.840031
lfemur -97.7122 6.20966 -8.63917
ltibia 60.4402
lfoot -38.3988 7.31515
ltoes -25.4818
466
root 4.95507 14.5843 1.89721 -177.722 -80.9697 267.866
lowerback 43.9579 4.29142 -5.57911
upperback 5.41134 0.722615 -6.63986
thorax -14.7239 0.289175 -4.7988
lowerneck -12.4303 0.356569 -1.13037
upperneck -20.5217 0.379504 2.33609
head -4.77615 -0.230526 1.03389
rclavicle -1.59028e-015 -1.19271e-014
rhumerus 64.4998 -10.9329 -54.3534
rradius 21.957
rwrist -2.40914
rhand -43.8341 -44.2533
rfingers 7.12502
rthumb -16.6615 -73.5582
lclavicle -1.59028e-015 -1.19271e-014
lhumerus 75.7872 6.09492 37.1838
lradius 25.2194
lwrist -5.36193
lhand -51.91 -74.1549
lfingers 7.12502
lthumb -24.4212 -45.6914
rfemur 8.90228 -30.3633 26.5049
rtibia 33.2097
rfoot 0.384484 -8.31382
rtoes 1.4092
lfemur -97.9136 6.13956 -7.74552
ltibia 57.2493
lfoot -37.2279 7.97999
ltoes -25.7302
467
root 4.78034 14.7048 1.9008 -177.891 -81.1083 270.478
lowerback 43.709 4.05731 -5.4406
upperback 5.32137 0.595176 -6.46577
thorax -14.7606 0.244739 -4.61107
lowerneck -12.3068 0.43969 -1.20351
upperneck -21.384 0.564839 2.56187
head -4.51161 -0.167918 1.04154
rclavicle -1.19668e-013 -9.14409e-015
rhumerus 64.9631 -11.7192 -53.2044
rradius 23.269
rwrist -3.99593
rhand -45.3636 -46.942
rfingers 7.12502
rthumb -18.1335 -76.1167
lclavicle -1.19668e-013 -9.14409e-015
lhumerus 75.9576 7.70218 36.2908
lradius 26.4577
lwrist -3.67775
lhand -52.0915 -76.3654
lfingers 7.12502
lthumb -24.5952 -47.9254
rfemur 10.4433 -30.5619 25.6691
rtibia 33.0311
rfoot 1.01104 -8.53252
rtoes 2.23629
lfemur -98.0401 6.14268 -6.8389
ltibia 53.7947
lfoot -35.7765 8.60899
ltoes -26.0694
468
root 4.59901 14.8327 1.90245 -178.001 -81.2311 273.1
lowerback 43.4524 3.83163 -5.32015
upperback 5.19348 0.473192 -6.26878
thorax -14.8379 0.203944 -4.39331
lowerneck -12.5939 0.537596 -1.31189
upperneck -21.4738 0.758097 2.78057
head -4.50141 -0.0776307 1.12994
rclavicle 1.26029e-013 -6.75868e-015
rhumerus 65.6442 -12.6199 -52.3918
rradius 24.3937
rwrist -5.07143
rhand -46.6133 -49.5686
rfingers 7.12502
rthumb -19.3355 -78.6273
lclavicle 1.26029e-013 -6.75868e-015
lhumerus 76.0653 9.38547 35.5099
lradius 27.7081
lwrist -2.10128
lhand -52.2089 -77.9019
lfingers 7.12502
lthumb -24.7077 -49.4773
rfemur 11.8281 -30.5467 24.9406
rtibia 32.7356
rfoot 1.66565 -8.80824
rtoes 3.10988
lfemur -98.1001 6.22997 -5.89036
ltibia 50.1237
lfoot -34.0371 9.21055
ltoes -26.5177
469
root 4.4135 14.9654 1.90313 -178.185 -81.3499 275.857
lowerback 43.1522 3.56964 -5.12344
upperback 5.04283 0.340398 -6.09033
thorax -14.9303 0.154511 -4.23079
lowerneck -12.7758 0.645207 -1.51014
upperneck -21.5962 0.995662 3.10406
head -4.51905 0.0379483 1.26687
rclavicle 5.48646e-014 4.77083e-014
rhumerus 66.5164 -13.5955 -51.7927
rradius 25.2618
rwrist -5.85241
rhand -47.6778 -52.0817
rfingers 7.12502
rthumb -20.3587 -81.0345
lclavicle 5.48646e-014 4.77083e-014
lhumerus 76.1711 11.1003 34.8913
lradius 28.8905
lwrist -0.749316
lhand -52.2899 -78.8531
lfingers 7.12502
lthumb -24.7853 -50.4391
rfemur 13.0612 -30.3692 24.3334
rtibia 32.3067
rfoot 2.38307 -9.13729
rtoes 3.96318
lfemur -98.1161 6.39761 -4.86655
ltibia 46.3096
lfoot -32.0409 9.81147
ltoes -27.1256
470
root 4.22577 15.0964 1.90326 -178.349 -81.3628 278.691
lowerback 42.6714 3.33233 -4.88558
upperback 4.86683 0.263343 -5.94046
thorax -14.9931 0.124525 -4.14473
lowerneck -12.7713 0.74861 -1.7227
upperneck -21.7816 1.23717 3.4381
head -4.58536 0.155923 1.40961
rclavicle 7.196e-014 2.14687e-014
rhumerus 67.4537 -14.604 -51.2151
rradius 25.8943
rwrist -6.56031
rhand -48.6223 -54.4515
rfingers 7.12502
rthumb -21.2662 -83.3048
lclavicle 7.196e-014 2.14687e-014
lhumerus 76.3282 12.7657 34.4749
lradius 29.9257
lwrist 0.344489
lhand -52.3525 -79.3651
lfingers 7.12502
lthumb -24.8453 -50.9594
rfemur 14.1303 -30.0062 23.7999
rtibia 31.7306
rfoot 3.21587 -9.4562
rtoes 5.02169
lfemur -98.1042 6.70141 -3.60625
ltibia 42.4874
lfoot -29.895 10.6286
ltoes -28.3708
